<?xml version="1.0" standalone="no"?>
<!DOCTYPE svg PUBLIC "-//W3C//DTD SVG 20010904//EN"
 "http://www.w3.org/TR/2001/REC-SVG-20010904/DTD/svg10.dtd">
<svg version="1.0" xmlns="http://www.w3.org/2000/svg"
 width="1080.000000pt" height="1080.000000pt" viewBox="0 0 1080.000000 1080.000000"
 preserveAspectRatio="xMidYMid meet">

 <rect width="100%" height="100%" fill="white"/>
 
<g transform="translate(0.000000,1080.000000) scale(0.100000,-0.100000)"
fill="#000000" stroke="none">
<path d="M4450 8633 c-32 -12 -87 -36 -130 -58 -25 -13 -72 -34 -105 -46 -33
-12 -69 -28 -80 -35 -11 -7 -52 -24 -90 -37 -177 -61 -440 -147 -540 -177 -60
-17 -132 -39 -160 -47 -27 -8 -81 -23 -120 -33 -143 -37 -375 -104 -456 -131
-31 -11 -64 -19 -74 -19 -10 0 -43 -9 -74 -19 -66 -23 -269 -80 -326 -91 -43
-9 -78 -20 -260 -81 -66 -22 -133 -44 -150 -49 -70 -19 -469 -160 -478 -169
-12 -12 -69 -183 -97 -291 -12 -47 -26 -101 -31 -120 -18 -69 -50 -267 -56
-352 l-6 -86 36 -49 c19 -26 64 -74 99 -106 34 -31 74 -67 88 -80 14 -13 52
-41 85 -62 33 -22 85 -58 115 -81 214 -160 326 -181 590 -114 19 5 69 17 110
25 41 9 100 23 130 30 245 62 399 37 566 -93 261 -202 286 -210 679 -216 263
-5 336 -15 399 -56 17 -11 47 -27 66 -36 19 -9 47 -25 62 -35 26 -19 75 -45
301 -162 64 -34 117 -66 117 -72 0 -6 -10 -21 -22 -32 -35 -31 -142 -173 -202
-267 -61 -96 -75 -122 -154 -276 -72 -141 -74 -147 -69 -202 6 -67 32 -118 69
-135 14 -7 65 -18 114 -23 49 -6 112 -15 139 -20 28 -6 86 -13 131 -16 73 -5
86 -4 130 19 48 24 146 123 173 174 17 32 90 115 120 136 21 15 38 17 92 12
63 -6 70 -4 177 45 62 27 119 50 128 50 19 0 134 -68 134 -79 0 -3 13 -14 29
-24 35 -20 103 -80 236 -208 89 -86 125 -117 257 -220 27 -21 37 -40 49 -85
17 -72 17 -280 -1 -414 -7 -52 -14 -106 -15 -120 -9 -65 -25 -159 -31 -174 -8
-21 -116 -95 -152 -104 -42 -10 -198 -4 -245 10 -24 7 -110 13 -202 14 -88 1
-180 6 -205 12 -345 78 -434 76 -609 -12 -108 -55 -221 -230 -221 -342 0 -50
3 -58 42 -100 24 -26 65 -57 93 -69 42 -20 207 -56 255 -57 32 -1 145 -30 174
-45 17 -9 49 -30 71 -48 35 -28 58 -41 147 -86 10 -5 37 -14 60 -20 160 -41
397 -40 773 3 160 18 207 15 325 -25 58 -19 125 -45 150 -58 171 -84 333 -140
452 -154 58 -7 140 6 345 57 144 35 290 21 392 -39 56 -33 133 -84 175 -118
113 -93 324 -239 396 -275 108 -54 201 -58 400 -15 36 7 94 19 130 25 167 28
398 115 439 164 15 18 78 203 93 271 5 28 14 68 19 90 29 130 58 308 64 403 3
45 6 86 7 90 5 20 -19 53 -84 112 -39 36 -90 83 -113 105 -22 22 -59 55 -80
74 -47 40 -226 203 -270 246 -16 16 -48 43 -70 60 -22 18 -52 42 -66 56 -14
13 -55 46 -90 74 -35 27 -93 74 -129 104 -36 29 -81 66 -100 82 -19 16 -60 50
-91 77 -31 26 -85 70 -119 97 -34 28 -81 66 -104 86 -22 19 -77 64 -121 99
-44 36 -98 80 -120 100 -23 19 -65 55 -94 80 -30 25 -77 64 -105 88 -205 174
-355 313 -497 464 -64 68 -135 145 -159 173 -68 79 -81 86 -188 100 -138 18
-357 81 -452 131 -14 7 -151 75 -305 152 -262 130 -285 140 -353 146 -79 7
-97 14 -152 57 -19 15 -59 40 -89 55 -54 27 -70 32 -186 60 -58 14 -84 19
-205 44 -30 7 -75 24 -100 39 -64 38 -114 58 -200 80 -127 33 -193 57 -234 84
-47 33 -105 121 -106 162 0 79 110 428 173 545 75 138 79 142 227 178 47 11
130 37 185 57 266 98 472 150 508 128 7 -4 49 -47 91 -95 69 -77 84 -89 131
-103 70 -20 97 -56 120 -155 57 -250 92 -308 213 -354 37 -14 76 -26 86 -26
19 0 90 -18 198 -52 83 -25 111 -17 166 50 l37 45 0 121 c1 184 -38 484 -75
581 -5 14 -10 35 -10 47 0 11 -6 34 -14 51 -8 18 -24 60 -36 94 -22 65 -108
240 -151 306 -57 89 -183 247 -246 310 -62 60 -75 68 -123 77 -167 28 -225 41
-293 65 -82 28 -120 28 -452 5 -290 -20 -516 -3 -699 51 -54 16 -99 29 -100
28 0 0 -8 -3 -16 -6z m1243 -128 c31 -6 50 -22 108 -89 38 -44 82 -101 96
-126 15 -25 48 -72 73 -105 26 -33 54 -74 63 -91 9 -17 50 -72 91 -123 42 -51
76 -101 76 -110 0 -10 -11 -24 -24 -31 -42 -22 -39 -38 12 -64 78 -40 98 -69
117 -171 9 -49 23 -112 31 -140 27 -103 22 -230 -12 -280 -17 -24 -18 -88 -3
-118 7 -12 25 -38 40 -58 69 -87 1 -126 -135 -77 -63 22 -114 62 -146 113 -22
36 -67 169 -76 224 -6 38 -4 42 46 89 l53 48 -89 0 c-113 -1 -138 13 -289 161
-109 107 -126 131 -181 261 -16 39 -21 43 -44 37 -72 -17 -108 -16 -172 3
-110 34 -165 67 -188 112 -11 22 -24 40 -28 40 -4 0 -13 -20 -20 -45 -20 -73
-113 -125 -227 -125 -40 0 -103 23 -157 57 -21 13 -38 19 -38 14 0 -20 42 -59
93 -85 31 -15 58 -33 60 -40 12 -29 2 -34 -278 -141 -38 -14 -82 -33 -96 -40
-14 -8 -55 -24 -92 -36 -102 -33 -124 -23 -270 123 -149 151 -167 154 -102 22
35 -71 65 -107 107 -128 13 -6 24 -18 26 -27 5 -27 -327 -351 -399 -390 -13
-7 -53 -35 -89 -64 -93 -73 -276 -185 -303 -185 -4 0 -20 -9 -35 -20 -34 -25
-173 -76 -277 -102 -119 -29 -289 -35 -416 -13 -57 9 -115 23 -129 30 -31 17
-160 149 -225 230 -48 60 -105 166 -105 196 0 9 -8 23 -18 32 -46 42 -59 -68
-17 -151 35 -69 33 -82 -10 -66 -18 7 -55 76 -75 139 -27 85 -50 79 -50 -15 0
-51 4 -61 61 -139 33 -46 59 -91 57 -99 -3 -18 -19 -24 -178 -73 -165 -51
-262 -93 -354 -153 l-85 -56 -40 16 c-51 20 -113 89 -129 142 -15 48 -16 166
-2 224 44 192 80 381 80 425 0 21 8 54 18 73 18 36 38 47 177 92 33 11 76 25
95 33 91 34 148 45 175 35 60 -23 123 -9 183 40 20 17 42 30 48 30 7 0 43 13
81 29 38 17 105 42 149 56 150 49 229 73 304 95 41 12 100 30 130 40 30 10 71
21 90 25 19 4 48 13 65 20 16 7 68 24 115 38 93 29 343 108 430 137 400 133
476 154 545 153 627 -6 849 -4 915 6 171 26 174 26 193 -2 16 -25 20 -26 119
-25 87 0 112 -3 161 -24 61 -26 164 -109 304 -245 76 -74 89 -83 123 -83 28 0
51 -10 89 -37 28 -21 51 -42 51 -47 0 -9 40 -114 65 -171 7 -16 18 -48 25 -70
17 -55 37 -93 71 -136 16 -20 29 -47 29 -60 l1 -24 24 28 c25 29 50 100 42
122 -3 6 -54 74 -114 150 -59 76 -133 174 -163 219 -72 105 -128 160 -225 219
-44 27 -109 67 -144 90 -36 23 -88 55 -115 71 -28 16 -73 44 -100 63 l-49 35
-107 -6 c-59 -3 -132 -8 -161 -11 -54 -5 -107 -9 -294 -23 -55 -4 -165 -7
-245 -7 -208 0 -354 33 -254 56 16 4 52 14 79 21 37 11 108 14 280 12 127 -1
289 2 360 7 305 22 379 25 540 23 94 -1 187 -5 208 -9z m227 -60 c19 -14 45
-25 59 -25 14 -1 38 -6 53 -13 44 -19 165 -134 195 -184 14 -25 62 -93 105
-151 43 -59 81 -118 85 -132 3 -14 22 -59 43 -100 21 -41 48 -101 60 -133 20
-51 21 -62 9 -83 -10 -20 -10 -29 -1 -42 31 -45 51 -94 67 -174 16 -80 17 -89
2 -111 -9 -14 -28 -28 -42 -31 -15 -4 -38 -20 -52 -37 -31 -36 -48 -27 -63 35
-6 22 -19 68 -29 101 -26 83 -46 154 -75 265 -14 52 -31 113 -39 135 -8 22
-17 57 -21 77 -4 24 -39 81 -101 165 -52 70 -127 173 -167 227 -40 54 -90 122
-110 150 -38 50 -44 67 -31 79 10 11 17 9 53 -18z m-851 -654 c10 -7 8 -12
-10 -25 -26 -18 -59 -21 -59 -7 0 10 39 41 50 41 3 0 11 -4 19 -9z m142 -61
c4 -30 12 -67 19 -82 15 -32 7 -47 -42 -70 -18 -9 -60 -30 -93 -46 -138 -68
-307 -114 -400 -108 -22 2 -59 4 -82 5 -23 0 -49 8 -58 17 -15 15 -15 18 0 34
21 23 6 33 -38 25 -23 -5 -37 -2 -46 8 -10 13 -5 17 31 25 48 12 225 78 242
91 18 14 167 59 233 71 44 7 79 22 120 50 36 25 67 39 83 37 22 -2 26 -8 31
-57z m168 39 c88 -15 148 -45 167 -81 9 -17 13 -32 10 -35 -11 -11 -112 -36
-164 -40 -35 -3 -58 0 -69 9 -21 17 -63 107 -63 136 0 26 19 28 119 11z
m-1103 -309 c129 -41 245 -71 334 -84 57 -9 76 -16 78 -29 2 -10 -33 -55 -92
-116 -115 -121 -130 -147 -122 -213 20 -156 20 -146 -6 -186 -17 -24 -27 -59
-32 -102 -10 -85 -40 -173 -77 -224 -79 -111 -166 -217 -256 -315 l-68 -73
-89 1 c-49 1 -92 3 -95 5 -3 2 -46 6 -96 10 -261 19 -341 28 -365 44 -14 9
-43 26 -65 37 -22 11 -65 36 -95 56 -30 20 -82 52 -115 71 -68 40 -176 106
-250 152 -28 17 -59 36 -70 42 -54 30 -14 82 77 102 29 6 89 19 133 28 320 67
630 229 773 405 63 77 386 419 396 419 5 0 51 -13 102 -30z m2123 -267 c16
-33 33 -135 23 -145 -14 -14 -62 12 -67 36 -11 56 -12 105 -2 115 16 16 35 13
46 -6z m-1786 -9 c7 -7 -31 -86 -57 -119 -15 -20 -15 -20 -16 1 0 12 10 44 21
73 20 47 36 61 52 45z m1982 -25 c17 -32 24 -166 11 -206 -10 -31 -49 -30 -74
2 -28 35 -39 153 -18 194 26 49 59 54 81 10z m-54 -255 c17 -21 4 -40 -32 -48
-36 -7 -59 7 -59 36 0 34 65 43 91 12z m-4263 -123 c83 -78 85 -93 14 -111
-87 -22 -157 -42 -202 -56 -25 -9 -68 -22 -97 -30 -54 -15 -177 -73 -225 -106
-38 -26 -73 -22 -145 18 -66 37 -119 98 -108 126 7 19 144 96 252 142 155 66
226 82 363 84 l75 1 73 -68z m191 -150 c20 -13 6 -28 -32 -36 -17 -4 -45 -10
-62 -15 -55 -16 -149 -39 -225 -55 -41 -9 -95 -23 -120 -30 -84 -25 -100 -26
-100 -11 0 23 63 63 141 89 78 25 173 44 299 57 41 4 77 8 80 8 3 1 11 -2 19
-7z m2081 -71 c27 -14 70 -91 70 -123 0 -30 -1 -30 57 -17 38 9 55 5 170 -35
128 -46 163 -66 163 -93 0 -17 -44 -97 -70 -127 -32 -36 -102 -185 -96 -202 5
-11 23 9 66 73 33 49 95 127 139 173 l79 83 54 -7 c59 -7 76 -12 197 -50 92
-29 136 -49 147 -66 4 -8 -3 -9 -26 -4 -58 13 -96 7 -176 -26 -88 -36 -288
-143 -319 -169 -11 -10 -33 -24 -50 -33 -16 -8 -44 -28 -61 -43 -55 -52 -115
-99 -136 -107 -29 -11 -61 0 -235 79 -28 13 -55 24 -59 24 -4 0 -36 14 -71 30
-34 17 -69 30 -76 30 -7 0 -17 4 -22 8 -6 5 -49 25 -97 46 -79 35 -88 41 -88
65 0 35 30 75 148 196 54 55 119 132 145 172 41 62 107 133 123 133 3 0 14 -5
24 -10z m-1870 -45 c21 -26 0 -35 -101 -46 -126 -14 -145 -17 -209 -28 -128
-23 -162 -31 -264 -60 -124 -36 -118 -35 -114 -15 5 27 176 81 358 113 36 7
108 20 160 30 120 24 154 25 170 6z m2860 -429 c59 -1 75 -4 78 -16 3 -16 -28
-36 -228 -145 -52 -28 -120 -68 -150 -87 -98 -63 -264 -146 -285 -143 -98 17
-135 31 -135 52 0 27 80 93 185 153 61 34 128 75 150 90 91 62 234 114 285
102 14 -3 59 -6 100 -6z m371 -80 c63 -24 130 -51 149 -61 19 -9 46 -22 60
-28 42 -20 238 -120 420 -215 177 -91 342 -166 437 -197 65 -21 190 -110 217
-154 20 -32 -234 44 -349 105 -16 9 -86 45 -155 81 -69 35 -145 75 -170 89
-25 14 -114 62 -199 106 -146 76 -157 80 -200 74 -196 -28 -285 -36 -292 -29
-4 4 -10 31 -13 58 -7 72 -17 114 -38 163 -10 24 -18 46 -18 48 0 12 49 -1
151 -40z m-182 -10 c28 -29 65 -167 56 -207 -4 -16 -7 -29 -8 -29 -68 -14
-170 -30 -195 -30 -18 0 -56 -10 -83 -21 -39 -17 -60 -20 -102 -15 -75 10 -84
10 -164 3 -41 -4 -74 -3 -77 2 -3 5 24 26 61 46 38 20 77 45 88 55 11 10 52
35 90 56 39 20 91 52 116 70 47 34 165 94 185 94 6 0 21 -11 33 -24z m455
-306 c86 -44 102 -47 133 -25 19 13 28 10 128 -50 103 -62 363 -195 381 -195
5 0 27 -9 49 -19 22 -11 96 -43 165 -71 69 -28 134 -55 145 -60 11 -5 69 -29
128 -54 69 -28 124 -58 151 -83 23 -21 75 -67 116 -103 41 -36 93 -82 115
-102 22 -21 92 -84 155 -140 63 -56 147 -130 185 -164 66 -58 120 -106 240
-209 62 -54 157 -136 212 -184 23 -20 76 -65 119 -101 136 -115 334 -313 361
-361 32 -59 69 -87 134 -99 33 -6 64 -21 88 -41 203 -176 278 -250 287 -284 3
-14 2 -42 -4 -63 -35 -120 -52 -188 -71 -277 -12 -55 -26 -122 -32 -150 -24
-112 -66 -210 -113 -264 -33 -38 -114 -71 -173 -71 -49 0 -54 2 -69 32 -54
104 -145 208 -309 353 -137 121 -148 134 -136 149 7 8 52 38 101 66 80 48 91
57 110 102 12 27 20 59 18 71 -3 20 -8 17 -48 -25 -65 -68 -119 -108 -146
-108 -36 0 -29 22 22 64 56 47 92 115 78 147 -10 22 -14 20 -89 -50 -64 -60
-100 -83 -209 -136 -149 -72 -222 -98 -275 -97 -83 1 -292 78 -421 155 -94 56
-266 208 -302 265 -12 21 -30 44 -40 52 -33 28 -149 199 -210 309 -75 135
-188 366 -188 385 0 9 -18 59 -40 112 -22 53 -40 102 -40 109 0 15 22 25 53
25 61 1 231 129 212 159 -4 7 -27 0 -63 -18 -31 -16 -73 -33 -92 -39 -19 -6
-66 -22 -105 -36 -38 -14 -89 -26 -112 -26 -49 0 -88 30 -238 189 -50 53 -119
123 -154 156 -35 33 -67 68 -73 78 -16 31 8 47 71 47 49 0 141 29 141 44 0 3
-40 2 -89 -1 -80 -5 -93 -3 -142 19 -112 51 -166 124 -156 210 3 26 2 48 -2
48 -5 0 -26 -14 -47 -31 l-39 -31 -119 6 c-122 7 -149 15 -213 64 l-33 24 -85
-72 c-80 -68 -211 -140 -257 -140 -9 0 -38 -9 -65 -21 -80 -34 -149 -42 -213
-22 -30 9 -70 28 -87 41 -30 22 -33 23 -33 6 0 -10 12 -42 26 -71 l27 -52 -37
-53 c-20 -29 -54 -71 -76 -92 -22 -22 -40 -43 -40 -48 0 -4 -32 -24 -71 -44
-69 -34 -74 -35 -148 -28 -110 10 -171 45 -155 89 4 8 32 29 63 45 75 41 97
76 104 170 6 92 31 151 102 244 17 22 37 50 45 62 70 102 104 145 123 156 12
6 51 14 87 17 l65 6 -3 36 -2 36 66 18 c63 17 152 17 197 -1 39 -15 18 -30
-198 -147 -213 -114 -199 -103 -203 -167 -2 -29 0 -65 3 -79 l6 -25 22 26 c12
15 40 35 62 46 22 11 96 77 164 146 68 69 128 126 133 126 5 0 6 5 3 10 -3 6
-4 10 -2 10 2 0 28 4 57 10 41 8 64 7 103 -5 65 -19 173 -19 228 0 24 9 65 36
90 61 38 37 59 49 113 62 107 27 185 19 280 -28z m-1341 -46 c72 -16 94 -32
67 -49 -12 -7 -120 -141 -135 -166 -5 -9 -30 -40 -55 -69 -46 -53 -115 -133
-162 -188 -35 -43 -55 -41 -67 6 -6 21 -23 48 -37 61 -22 19 -25 29 -21 57 8
45 105 175 154 205 47 28 51 34 46 63 -6 31 79 111 110 102 12 -3 57 -13 100
-22z m847 -4 c-20 -13 -43 -13 -35 0 3 6 16 10 28 10 18 0 19 -2 7 -10z m92
-424 c86 -23 118 -37 118 -52 0 -20 -54 -78 -94 -99 -30 -16 -40 -17 -75 -6
-23 6 -53 23 -69 36 -15 14 -43 38 -62 55 l-35 30 28 25 c33 30 104 34 189 11z
m-1342 -86 c15 -36 8 -66 -32 -137 -35 -62 -87 -95 -114 -72 -19 16 -18 38 6
103 46 121 113 172 140 106z m1582 -14 c18 -24 40 -57 49 -73 8 -15 49 -51 89
-78 41 -28 132 -109 205 -183 71 -73 145 -143 162 -155 18 -12 33 -25 33 -29
0 -13 -44 -9 -65 5 -11 8 -30 16 -42 19 -21 6 -22 5 -9 -14 18 -26 10 -48 -17
-48 -22 0 -73 15 -124 37 -17 7 -34 13 -38 13 -20 0 -147 96 -210 157 -94 92
-184 199 -191 230 -5 18 -1 28 15 39 12 9 32 37 46 64 22 43 35 57 57 59 4 1
22 -19 40 -43z m105 -32 c20 -20 23 -28 14 -37 -10 -9 -18 -5 -37 16 -42 49
-23 67 23 21z m-1505 -1 c3 -10 -3 -29 -13 -43 -9 -14 -20 -35 -24 -48 -8 -26
-48 -45 -76 -37 -22 7 -25 28 -6 47 6 7 24 32 40 56 29 45 72 59 79 25z m-248
-204 c28 -13 38 -32 30 -54 -13 -32 -104 -5 -104 31 0 12 18 24 47 33 1 1 13
-4 27 -10z m2021 -370 c126 -27 246 -47 342 -55 79 -6 82 -7 96 -38 8 -17 18
-47 22 -66 4 -19 25 -80 46 -135 48 -128 89 -246 125 -359 50 -158 181 -352
342 -506 96 -93 205 -182 277 -226 91 -57 129 -102 119 -141 -5 -16 -17 -22
-57 -27 -29 -3 -104 -13 -167 -22 -129 -17 -293 -39 -452 -59 l-106 -14 -159
55 c-87 31 -189 66 -228 79 -107 36 -209 76 -222 87 -6 5 -15 24 -19 41 -3 18
-19 70 -35 117 -16 47 -38 121 -50 165 -11 44 -26 100 -32 125 -19 72 -13 245
10 305 14 37 18 67 15 110 -4 56 -2 64 33 115 78 114 79 138 15 305 -46 117
-54 150 -45 165 4 6 14 8 24 5 9 -4 57 -15 106 -26z m-97 -220 c4 -51 -5 -109
-17 -109 -11 0 -25 135 -16 150 14 22 30 2 33 -41z m-1083 -540 c70 -11 128
-26 170 -44 27 -11 34 -24 72 -146 23 -74 48 -169 54 -211 8 -56 16 -78 26
-78 13 0 14 16 8 98 -4 53 -13 129 -21 169 -17 88 -18 115 -2 131 15 15 143
16 257 1 68 -8 91 -16 121 -39 l36 -28 15 27 c21 37 78 79 116 87 27 5 32 2
46 -28 14 -31 30 -89 58 -218 6 -30 26 -91 44 -135 18 -44 43 -117 55 -162 19
-68 21 -87 12 -108 l-12 -26 -458 6 c-460 6 -497 9 -559 45 -10 5 -62 30 -116
55 -54 24 -111 53 -127 65 -32 23 -92 36 -229 50 -153 16 -208 51 -222 142
-10 64 8 124 55 179 17 19 41 47 53 62 23 27 94 67 167 94 84 31 232 36 381
12z m3318 -793 c93 -48 186 -124 282 -231 81 -90 165 -202 165 -221 0 -17 -44
-51 -83 -63 -18 -5 -63 -12 -100 -15 -78 -8 -70 -13 -182 125 -33 41 -73 85
-90 99 -16 13 -49 43 -71 65 -23 22 -77 68 -120 102 -129 100 -141 125 -67
139 21 4 51 14 68 22 76 38 86 37 198 -22z m-364 -87 c42 -23 97 -57 124 -75
26 -19 50 -34 55 -34 12 -1 137 -123 160 -157 47 -68 18 -83 -49 -25 -42 36
-136 108 -189 145 -14 9 -50 37 -80 62 -30 25 -72 57 -92 72 -40 27 -50 53
-21 53 9 0 50 -19 92 -41z m-306 20 c45 -23 162 -103 170 -116 4 -7 13 -13 18
-13 11 0 88 -50 189 -124 70 -51 180 -157 180 -173 0 -20 -25 -15 -46 8 -62
70 -349 270 -506 353 -51 27 -70 52 -48 66 19 12 17 12 43 -1z"/>
</g>
</svg>
