<?xml version="1.0" standalone="no"?>
<!DOCTYPE svg PUBLIC "-//W3C//DTD SVG 20010904//EN"
 "http://www.w3.org/TR/2001/REC-SVG-20010904/DTD/svg10.dtd">
<svg version="1.0" xmlns="http://www.w3.org/2000/svg"
 width="1080.000000pt" height="1080.000000pt" viewBox="0 0 1080.000000 1080.000000"
 preserveAspectRatio="xMidYMid meet">
 <rect width="100%" height="100%" fill=""/>
<g transform="translate(0.000000,1080.000000) scale(0.100000,-0.100000)"
fill="#000000" stroke="none">
<path d="M4695 10403 c-11 -2 -42 -13 -70 -24 -48 -20 -70 -30 -132 -64 -54
-28 -120 -55 -134 -55 -8 0 -23 -6 -34 -14 -11 -7 -33 -16 -49 -20 -17 -4 -42
-16 -57 -27 -15 -10 -51 -26 -81 -35 -29 -9 -78 -26 -108 -39 -110 -46 -126
-52 -175 -65 -27 -7 -63 -20 -80 -28 -16 -8 -43 -19 -60 -23 -114 -30 -174
-48 -200 -61 -16 -9 -50 -19 -75 -23 -25 -4 -58 -13 -75 -20 -16 -7 -48 -17
-70 -23 -113 -29 -133 -35 -165 -48 -19 -8 -59 -19 -88 -24 -30 -5 -66 -16
-80 -24 -35 -18 -86 -33 -142 -41 -25 -4 -57 -14 -72 -21 -15 -8 -38 -14 -52
-14 -14 0 -27 -4 -30 -9 -3 -4 -29 -11 -57 -15 -29 -4 -68 -15 -88 -25 -20
-10 -58 -22 -85 -26 -27 -3 -63 -12 -80 -20 -45 -19 -95 -32 -146 -40 -25 -4
-57 -13 -71 -21 -14 -7 -48 -18 -75 -24 -27 -6 -85 -22 -129 -35 -44 -13 -107
-31 -140 -40 -33 -9 -76 -21 -95 -26 -19 -6 -62 -16 -95 -23 -33 -7 -69 -17
-80 -23 -11 -6 -42 -14 -70 -18 -27 -4 -61 -13 -75 -20 -14 -7 -65 -22 -115
-34 -49 -13 -103 -29 -120 -37 -16 -8 -55 -21 -86 -28 -31 -8 -70 -21 -85 -28
-16 -8 -56 -23 -89 -33 -33 -10 -85 -27 -115 -37 -139 -48 -204 -68 -217 -68
-7 0 -35 -11 -61 -24 -26 -13 -74 -30 -107 -39 -33 -9 -85 -25 -115 -37 -30
-12 -69 -25 -85 -29 -71 -18 -117 -65 -134 -136 -7 -27 -17 -56 -23 -63 -19
-22 -22 -61 -24 -312 -2 -239 3 -263 24 -115 4 28 11 55 14 61 6 10 18 87 37
244 5 36 15 82 24 102 16 37 72 82 89 72 5 -3 20 1 33 10 29 19 103 46 127 46
10 0 32 6 50 14 49 20 95 36 168 57 36 10 84 25 107 33 37 14 46 14 78 0 49
-20 163 -21 201 -1 16 8 52 34 79 56 27 23 56 41 63 41 15 0 102 34 142 55 30
16 88 37 180 66 36 11 79 27 95 35 17 7 55 20 85 28 30 8 82 24 115 36 33 12
85 27 115 34 30 7 66 18 80 24 14 6 63 20 110 32 47 12 101 28 120 37 19 8 42
16 50 18 56 12 113 29 255 77 17 5 44 14 60 18 136 39 182 53 197 61 10 5 25
9 33 9 9 0 30 7 46 16 17 8 41 17 52 19 34 7 160 46 179 55 9 5 50 18 92 29
41 11 85 26 98 34 20 13 74 28 118 32 9 1 25 7 36 13 32 17 107 42 127 42 11
0 31 6 45 14 15 8 68 26 117 41 50 15 124 39 165 54 86 30 123 31 710 17 179
-5 332 -8 340 -8 78 0 396 12 435 16 28 3 78 8 111 11 34 2 72 8 85 13 13 5
51 10 85 11 55 2 63 0 78 -23 31 -48 69 -59 155 -47 96 13 223 3 237 -20 3 -5
13 -9 22 -9 47 0 130 -58 276 -190 34 -31 86 -74 117 -97 31 -23 89 -78 129
-121 l72 -80 74 -11 c67 -11 79 -17 127 -61 54 -50 89 -107 131 -220 13 -36
34 -90 46 -120 12 -30 25 -68 30 -85 16 -62 58 -142 103 -194 26 -30 47 -61
47 -69 0 -22 -29 -65 -62 -91 -63 -51 -215 -36 -314 30 -77 52 -338 311 -372
369 -14 25 -36 59 -49 76 -13 17 -23 40 -23 51 0 10 -7 28 -15 39 -8 10 -19
36 -25 57 -6 20 -21 44 -35 53 -22 14 -27 14 -64 -5 -52 -27 -136 -27 -215 -1
-34 11 -77 26 -96 32 -19 6 -63 24 -97 41 -57 27 -65 35 -93 91 -35 70 -63 94
-86 75 -8 -6 -14 -27 -14 -46 0 -61 -67 -161 -108 -163 -7 0 -31 -9 -52 -20
-22 -11 -43 -19 -47 -18 -5 1 -24 -2 -43 -6 -113 -23 -228 10 -324 93 -51 44
-54 45 -75 32 -24 -15 -4 -58 57 -118 37 -38 75 -65 107 -77 63 -24 74 -33 68
-54 -7 -23 -174 -101 -221 -102 -8 0 -27 -10 -44 -21 -16 -12 -44 -25 -61 -29
-18 -5 -57 -18 -87 -30 -30 -12 -66 -24 -80 -27 -14 -3 -37 -14 -52 -25 -14
-10 -50 -25 -80 -34 -29 -9 -74 -25 -100 -36 -57 -25 -87 -21 -171 26 -58 33
-135 110 -358 359 -26 29 -41 38 -53 34 -15 -6 -16 -15 -11 -64 4 -35 17 -73
31 -95 13 -21 24 -46 24 -55 0 -30 102 -156 152 -188 26 -16 47 -37 47 -46 1
-18 -348 -365 -459 -456 -134 -110 -324 -254 -370 -281 -25 -14 -73 -47 -106
-74 -34 -26 -70 -48 -81 -48 -10 0 -37 -13 -59 -29 -22 -16 -53 -33 -69 -36
-17 -4 -46 -20 -67 -36 -33 -26 -51 -34 -148 -69 -19 -7 -48 -19 -65 -25 -57
-24 -100 -37 -163 -51 -35 -8 -71 -18 -82 -24 -10 -5 -44 -12 -77 -15 -32 -3
-89 -10 -128 -15 -64 -8 -253 -6 -329 4 -206 28 -242 39 -314 102 -225 194
-400 433 -436 595 -7 32 -43 79 -60 79 -7 0 -25 -12 -40 -27 -25 -25 -27 -33
-24 -93 3 -63 33 -157 66 -207 13 -21 13 -23 -2 -23 -20 0 -103 110 -111 147
-21 104 -48 173 -66 173 -32 0 -43 -30 -47 -130 -4 -96 -3 -100 29 -157 18
-32 59 -93 92 -135 32 -42 56 -82 52 -88 -10 -17 -77 -47 -120 -54 -22 -4 -60
-15 -85 -25 -25 -11 -65 -25 -90 -31 -25 -7 -61 -17 -80 -22 -19 -6 -53 -18
-75 -28 -22 -11 -63 -25 -91 -33 -60 -18 -226 -112 -304 -173 -50 -39 -58 -42
-90 -35 -37 8 -152 89 -170 119 -6 12 -9 -13 -10 -84 l0 -101 53 -47 c126
-113 192 -168 221 -183 17 -9 44 -26 59 -39 16 -13 33 -24 39 -24 7 0 37 -22
67 -48 31 -27 70 -56 86 -66 17 -9 59 -34 94 -56 34 -22 66 -40 71 -40 4 0 23
-11 43 -24 57 -39 200 -59 329 -47 58 6 116 15 131 20 14 6 48 12 76 15 28 2
56 8 62 12 7 4 39 12 73 19 53 11 150 30 236 48 14 3 43 10 65 16 114 31 295
60 380 61 28 0 174 -29 200 -40 17 -7 41 -17 55 -22 71 -28 120 -58 169 -101
30 -27 93 -74 140 -105 47 -30 102 -70 121 -88 46 -42 135 -90 185 -100 22 -4
49 -13 61 -20 36 -24 287 -46 574 -49 313 -5 412 -10 439 -24 10 -6 33 -12 52
-14 45 -6 105 -34 156 -74 22 -18 46 -33 53 -33 13 0 92 -44 128 -71 13 -10
74 -43 137 -73 63 -31 117 -61 120 -66 4 -6 31 -22 61 -35 30 -13 54 -30 54
-37 -1 -12 -173 -120 -260 -164 -19 -9 -55 -34 -80 -54 -25 -21 -64 -47 -88
-59 -23 -12 -64 -41 -90 -66 -108 -101 -169 -153 -193 -166 -29 -15 -189 -183
-189 -198 0 -4 -17 -20 -39 -34 -22 -15 -51 -48 -69 -79 -16 -30 -45 -66 -64
-80 -18 -14 -43 -45 -55 -70 -13 -25 -32 -53 -43 -63 -11 -10 -20 -24 -20 -31
0 -8 -11 -21 -24 -29 -14 -9 -29 -28 -35 -43 -11 -28 -17 -38 -68 -113 -17
-26 -46 -73 -63 -105 -17 -33 -47 -86 -66 -119 -19 -33 -38 -69 -44 -80 -5
-11 -14 -27 -19 -35 -5 -8 -17 -33 -26 -55 -10 -22 -23 -47 -30 -55 -6 -8 -22
-40 -34 -70 -13 -30 -35 -80 -49 -110 -28 -60 -31 -105 -15 -205 12 -76 30
-111 85 -161 44 -40 45 -41 159 -53 63 -7 150 -20 194 -28 44 -9 89 -15 100
-15 11 1 43 -5 70 -13 74 -21 192 -35 261 -31 49 2 81 12 155 49 88 42 99 52
172 139 91 108 103 124 137 173 63 91 173 211 208 227 33 14 47 15 135 2 l99
-14 196 91 c150 69 202 89 224 85 32 -6 128 -64 200 -121 28 -22 73 -56 99
-76 27 -19 66 -53 88 -75 21 -21 53 -50 70 -64 17 -14 68 -61 114 -105 157
-150 302 -285 327 -302 14 -9 43 -34 65 -55 22 -21 45 -38 51 -38 6 0 21 -11
34 -25 13 -14 29 -25 36 -25 7 0 23 -13 37 -30 68 -80 98 -315 76 -586 -7 -82
-14 -169 -16 -194 -2 -25 -8 -72 -14 -105 -5 -33 -14 -89 -18 -125 -35 -284
-56 -342 -133 -381 -24 -12 -55 -30 -70 -41 -38 -27 -164 -68 -207 -68 -52 0
-278 31 -406 55 -87 16 -131 22 -136 19 -4 -2 -54 -6 -112 -8 -58 -2 -111 -7
-117 -11 -14 -9 -179 15 -186 27 -3 4 -23 8 -44 8 -22 0 -59 6 -82 14 -24 8
-104 24 -178 36 -74 11 -157 25 -185 31 -27 6 -60 11 -72 10 -61 0 -74 0 -90
0 -35 1 -149 -11 -201 -20 -60 -12 -215 -80 -279 -123 -47 -32 -163 -144 -163
-157 0 -5 -15 -28 -34 -50 -19 -23 -38 -51 -42 -64 -3 -12 -16 -35 -28 -52
-53 -73 -84 -169 -81 -251 2 -78 31 -146 85 -200 64 -64 86 -84 93 -84 5 0 32
-11 60 -24 29 -14 70 -29 92 -35 22 -5 69 -17 104 -26 60 -14 153 -27 193 -27
10 1 20 -3 23 -9 4 -5 21 -9 40 -9 49 0 183 -28 245 -52 30 -12 75 -37 99 -57
81 -67 116 -91 168 -116 28 -14 57 -32 63 -40 7 -8 21 -15 31 -15 11 0 38 -8
62 -19 81 -35 98 -41 123 -41 14 0 37 -6 52 -14 86 -43 446 -48 867 -12 28 3
97 7 154 10 57 4 120 10 140 15 20 5 44 9 54 10 9 0 43 0 75 1 31 1 75 6 96
11 59 16 146 19 196 7 25 -6 58 -10 73 -9 16 1 40 -8 54 -19 14 -11 33 -20 42
-20 9 0 41 -10 71 -21 30 -12 73 -27 95 -33 22 -7 65 -24 95 -38 30 -15 72
-34 92 -43 20 -8 40 -19 42 -24 3 -5 22 -12 41 -15 20 -4 52 -18 72 -32 20
-13 42 -24 49 -24 7 0 39 -12 71 -26 32 -15 74 -30 93 -34 19 -5 55 -15 80
-24 141 -49 182 -56 360 -63 82 -3 105 0 169 21 40 14 77 24 81 21 4 -2 22 0
41 5 19 6 65 15 104 21 38 6 104 24 145 39 70 25 84 27 220 25 117 -2 163 -7
236 -26 50 -14 98 -30 105 -36 8 -6 49 -29 92 -51 42 -23 93 -54 113 -70 19
-16 47 -35 62 -43 28 -14 48 -30 116 -93 22 -20 43 -36 48 -36 5 0 33 -18 63
-40 l54 -40 193 0 193 0 -27 23 c-29 24 -54 67 -40 67 5 0 15 -6 21 -14 7 -8
22 -17 35 -20 12 -3 28 -17 36 -31 l13 -25 164 0 c90 0 163 2 163 5 0 2 -12
11 -27 19 -16 8 -48 33 -71 55 -24 23 -60 52 -81 65 -20 13 -42 31 -50 40 -7
9 -19 16 -25 16 -7 0 -23 11 -36 25 -14 15 -49 42 -80 63 -73 48 -77 51 -119
94 -20 20 -56 46 -80 59 -41 21 -85 74 -75 90 6 10 62 -6 83 -24 9 -7 36 -23
61 -36 25 -13 51 -29 59 -35 7 -5 21 -15 31 -21 10 -5 39 -25 65 -42 25 -18
49 -33 52 -33 7 0 171 -142 244 -212 22 -21 59 -92 59 -113 0 -12 17 -15 101
-15 l102 0 -45 48 c-24 26 -53 62 -63 79 -11 18 -23 33 -27 33 -4 0 -20 11
-35 24 -16 14 -53 46 -83 72 -30 26 -59 53 -63 61 -7 12 -34 32 -106 78 -9 6
-36 30 -60 54 -24 24 -57 51 -72 60 -37 23 -129 108 -129 119 0 10 33 25 90
41 19 5 71 26 115 45 89 40 131 42 203 6 20 -10 55 -26 77 -35 22 -10 48 -24
58 -33 20 -18 34 -26 113 -69 33 -17 66 -43 74 -58 8 -15 27 -33 42 -41 l28
-15 0 82 c0 81 0 81 -38 118 -53 50 -92 81 -102 81 -13 0 -69 81 -64 94 2 6
49 35 104 65 l100 54 0 89 c0 48 -3 88 -8 88 -4 0 -30 -16 -59 -35 -56 -37
-98 -52 -107 -37 -3 5 7 18 22 27 39 26 123 110 138 141 17 32 19 204 4 204
-23 0 -90 -41 -101 -63 -23 -45 -87 -100 -209 -181 -69 -46 -156 -98 -195
-116 -95 -44 -237 -100 -252 -100 -7 0 -47 -12 -88 -26 -56 -19 -89 -25 -127
-22 -66 6 -290 64 -342 89 -22 10 -55 22 -75 25 -20 4 -43 12 -51 19 -8 7 -46
27 -85 45 -38 19 -78 40 -88 49 -9 8 -39 26 -65 40 -73 40 -122 72 -122 81 0
5 -26 26 -57 47 -76 50 -312 285 -346 346 -16 26 -39 54 -52 63 -14 9 -41 42
-60 75 -20 32 -43 60 -53 64 -9 3 -37 42 -61 88 -24 45 -61 105 -81 132 -64
84 -272 481 -354 675 -99 235 -187 473 -184 499 3 24 8 27 61 33 71 9 207 76
257 128 19 19 51 48 71 62 40 30 89 105 89 137 0 33 -31 26 -169 -38 -334
-156 -441 -190 -559 -175 -48 6 -59 12 -129 80 -42 41 -80 74 -85 74 -4 0 -22
21 -39 48 -18 26 -37 49 -41 51 -9 3 -189 183 -243 243 -17 18 -55 56 -85 84
-94 86 -117 116 -110 144 6 24 9 25 100 27 88 3 101 6 177 43 85 42 108 69 81
96 -12 13 -24 11 -84 -7 -92 -30 -258 -28 -307 2 -18 10 -46 26 -63 33 -17 8
-36 22 -44 30 -7 9 -17 16 -23 16 -17 0 -118 112 -133 148 -19 47 -18 136 2
168 14 20 15 30 6 49 -7 14 -17 25 -23 25 -16 0 -79 -31 -79 -39 0 -4 -21 -22
-46 -40 -45 -33 -46 -33 -162 -32 -209 1 -266 8 -337 42 -41 19 -77 45 -97 70
-36 45 -77 52 -105 19 -10 -12 -29 -31 -42 -43 -14 -12 -41 -38 -60 -58 -52
-51 -198 -145 -272 -175 -79 -31 -265 -100 -339 -125 -98 -33 -180 -42 -251
-28 -35 6 -68 16 -73 20 -6 5 -19 9 -31 9 -50 0 -135 110 -135 174 0 44 12 57
94 97 74 37 98 58 272 235 106 107 215 210 244 229 73 49 175 79 226 66 146
-38 126 -38 211 2 117 54 150 66 222 82 36 8 118 31 181 51 63 20 144 46 180
57 36 11 90 21 120 21 70 2 199 -12 225 -23 11 -5 36 -15 55 -22 19 -7 42 -18
50 -24 8 -7 40 -26 71 -43 67 -38 118 -41 161 -11 l30 22 61 -29 c33 -16 76
-42 96 -57 20 -16 63 -42 96 -59 33 -16 67 -35 75 -42 8 -7 29 -20 45 -28 17
-8 53 -27 80 -40 124 -64 284 -138 295 -138 7 0 23 -9 37 -20 14 -11 33 -20
41 -20 8 0 44 -13 79 -30 34 -16 68 -30 73 -30 5 0 39 -13 73 -30 35 -16 73
-30 84 -30 11 0 26 -7 33 -14 6 -8 33 -22 58 -32 26 -9 70 -27 97 -39 99 -45
195 -85 205 -85 5 0 38 -13 72 -28 35 -16 86 -37 113 -47 79 -30 158 -74 185
-104 14 -15 50 -49 80 -75 30 -27 82 -71 115 -99 33 -29 78 -70 101 -92 24
-22 65 -58 93 -80 28 -22 55 -49 61 -60 6 -11 21 -27 34 -35 12 -8 39 -25 58
-38 20 -12 47 -38 59 -57 13 -19 31 -37 40 -40 9 -3 48 -36 87 -73 123 -117
166 -154 205 -178 20 -14 37 -28 37 -33 0 -4 44 -46 98 -91 53 -46 111 -96
127 -111 56 -51 110 -98 173 -150 34 -29 62 -56 62 -60 0 -5 19 -21 42 -35 23
-15 63 -49 89 -75 26 -27 51 -49 54 -49 8 0 132 -103 198 -166 27 -25 61 -53
75 -62 15 -10 56 -45 92 -79 65 -62 148 -133 156 -133 2 0 4 54 4 120 0 76 -4
120 -10 120 -6 0 -52 36 -103 81 -51 44 -101 85 -112 89 -11 5 -47 35 -80 66
-33 32 -80 71 -104 86 -24 16 -64 51 -90 77 -26 27 -65 59 -87 73 -21 14 -45
33 -53 42 -7 9 -18 16 -23 16 -5 0 -22 15 -38 33 -16 19 -48 47 -72 62 -24 16
-59 45 -78 64 -20 20 -49 45 -65 56 -16 11 -46 35 -66 53 -20 17 -41 32 -47
32 -7 0 -19 11 -28 25 -9 14 -47 47 -84 74 -37 27 -87 69 -111 92 -24 23 -65
57 -90 75 -25 18 -70 55 -99 84 -29 28 -69 62 -89 75 -20 12 -59 45 -88 74
-29 28 -56 51 -61 51 -5 0 -19 11 -32 25 -13 14 -29 25 -36 25 -7 0 -21 13
-30 29 -9 16 -40 46 -68 67 -27 22 -64 54 -81 71 -17 18 -35 33 -38 33 -11 0
-234 214 -309 296 -14 16 -46 45 -71 64 -24 19 -55 51 -68 70 -13 19 -73 84
-132 144 -59 60 -124 133 -142 162 -19 30 -41 54 -49 54 -7 0 -25 18 -40 40
-14 22 -30 40 -35 40 -5 0 -24 12 -41 27 -27 22 -46 28 -119 34 -152 14 -239
28 -269 43 -16 8 -53 18 -83 22 -30 4 -59 11 -65 15 -6 5 -31 13 -55 18 -49
10 -248 79 -264 91 -5 4 -28 13 -50 20 -22 7 -51 21 -64 31 -13 11 -35 19 -49
19 -14 0 -35 8 -46 18 -12 11 -52 32 -91 47 -38 16 -79 36 -90 45 -11 10 -41
25 -67 35 -27 10 -48 23 -48 29 0 6 22 23 49 38 27 16 63 45 81 65 55 62 64
95 63 225 -1 150 -22 247 -82 363 -43 83 -182 230 -251 264 -25 13 -58 30 -75
38 -71 37 -92 46 -120 50 -16 3 -55 13 -85 23 -30 10 -75 21 -100 25 -25 4
-52 11 -60 15 -8 4 -39 11 -69 15 -30 4 -64 10 -75 14 -12 5 -52 14 -91 21
-38 7 -87 23 -108 36 -21 14 -48 29 -60 34 -12 6 -29 14 -37 18 -62 35 -109
52 -200 76 -279 73 -344 97 -395 144 -22 20 -43 42 -48 49 -4 7 -24 34 -44 60
-53 69 -57 99 -27 228 14 61 31 124 39 140 7 17 19 59 26 95 6 36 16 70 21 76
4 6 15 36 24 65 8 30 19 63 24 74 5 11 16 40 24 65 29 87 42 118 52 131 6 8
20 33 32 57 53 103 65 120 110 165 41 40 56 48 107 58 33 6 83 17 110 26 28 8
66 19 85 23 19 4 60 18 90 30 30 11 84 30 120 42 36 11 79 26 95 33 47 20 94
35 169 56 38 10 79 25 90 33 12 7 44 16 71 20 28 4 69 14 91 21 23 8 59 16 80
19 22 3 57 8 79 11 22 3 49 4 61 1 11 -3 76 -69 143 -146 68 -77 131 -140 140
-140 33 0 157 -51 172 -72 18 -23 57 -148 89 -283 12 -49 25 -106 30 -125 37
-155 160 -289 290 -314 19 -4 44 -11 55 -15 11 -5 45 -14 75 -20 131 -28 217
-50 251 -64 20 -9 47 -19 60 -21 13 -3 37 -9 52 -12 61 -14 165 40 192 99 8
18 25 45 37 60 21 26 22 36 21 175 -1 157 -18 415 -34 495 -5 27 -11 77 -15
111 -5 57 -9 78 -34 159 -5 18 -10 48 -10 66 0 17 -9 49 -20 71 -11 22 -20 59
-20 82 0 24 -7 53 -15 65 -14 20 -75 197 -75 218 0 6 -15 33 -34 60 -18 28
-37 65 -40 82 -4 17 -14 37 -22 43 -7 7 -18 29 -24 50 -6 21 -26 60 -45 87
-19 26 -46 69 -60 95 -14 26 -38 62 -53 80 -16 18 -48 62 -72 98 -151 224
-314 383 -408 395 -79 11 -91 13 -100 19 -4 2 -26 7 -47 10 -99 12 -193 29
-225 42 -19 7 -55 19 -80 26 -25 6 -55 18 -68 26 -18 12 -54 13 -190 9 -185
-7 -353 -15 -482 -23 -124 -8 -503 -8 -590 0 -41 4 -93 8 -115 10 -22 2 -58 8
-80 14 -22 6 -60 13 -85 15 -25 3 -63 12 -85 21 -22 8 -47 15 -56 16 -9 0 -36
9 -60 20 -42 19 -80 23 -124 13z m1835 -218 c36 -4 75 -13 87 -21 33 -21 184
-200 235 -279 24 -38 64 -95 89 -125 24 -30 70 -97 102 -147 31 -51 84 -128
117 -170 34 -43 79 -101 100 -130 22 -28 44 -54 50 -58 20 -12 10 -51 -18 -67
-15 -9 -36 -25 -46 -36 -27 -31 -8 -53 90 -103 47 -24 93 -54 102 -67 13 -19
39 -118 46 -177 2 -11 7 -29 13 -40 5 -11 11 -42 12 -69 1 -28 5 -54 8 -59 32
-52 52 -327 26 -358 -6 -8 -22 -46 -36 -84 -22 -63 -23 -77 -15 -137 9 -58 16
-73 55 -120 71 -83 76 -93 61 -117 -33 -53 -130 -41 -318 37 -52 21 -128 124
-154 208 -10 32 -24 73 -32 89 -13 30 -31 107 -41 178 -5 38 -3 41 80 118 47
44 89 90 93 102 4 12 24 41 44 63 43 47 87 165 77 205 -4 13 -61 89 -127 168
-66 80 -120 151 -120 157 0 7 -22 39 -48 71 -52 63 -130 171 -176 243 -73 115
-176 210 -228 210 -6 0 -34 19 -62 43 -28 23 -62 48 -76 55 -48 23 -120 67
-190 117 -78 55 -126 85 -180 112 -19 10 -49 28 -67 41 -17 12 -34 22 -38 22
-3 0 -23 14 -44 30 l-37 31 -135 -10 c-74 -5 -168 -11 -209 -14 -41 -3 -120
-8 -175 -12 -55 -3 -129 -10 -165 -15 -36 -5 -72 -9 -80 -8 -8 0 -55 -3 -105
-7 -262 -19 -459 -19 -627 0 -101 11 -117 45 -32 66 121 31 190 40 222 31 41
-13 677 -8 822 7 100 10 189 16 420 30 138 8 548 6 630 -4z m350 -82 c47 -33
91 -51 140 -58 28 -4 52 -11 56 -16 3 -5 13 -9 23 -9 10 0 25 -7 32 -17 8 -9
51 -47 96 -85 45 -37 89 -83 98 -101 8 -17 53 -83 100 -146 47 -63 85 -118 85
-122 0 -4 29 -45 65 -90 36 -46 68 -95 71 -109 3 -14 12 -37 20 -52 8 -14 14
-33 14 -41 0 -8 15 -37 33 -64 18 -27 41 -76 51 -109 10 -32 29 -80 42 -105
27 -53 31 -91 9 -109 -8 -7 -15 -20 -15 -29 0 -17 4 -23 59 -117 34 -57 51
-116 74 -256 10 -65 10 -69 -13 -93 -12 -13 -39 -30 -59 -36 -40 -13 -71 -36
-71 -54 0 -7 -9 -20 -20 -30 -19 -17 -20 -17 -31 11 -6 16 -17 58 -25 94 -9
36 -24 83 -34 105 -10 22 -22 63 -26 90 -3 28 -14 64 -24 80 -9 17 -23 66 -30
110 -7 44 -17 89 -23 99 -5 11 -17 51 -27 90 -10 39 -25 91 -35 116 -9 25 -20
61 -25 80 -34 139 -53 178 -145 290 -43 52 -102 131 -130 176 -29 44 -75 107
-102 140 -77 93 -139 176 -156 210 -9 17 -36 55 -60 85 -64 79 -71 110 -17 72z
m-1057 -1025 c8 -13 13 -41 12 -63 -1 -22 7 -66 17 -99 11 -32 17 -64 15 -70
-5 -11 -24 -22 -137 -74 -30 -13 -66 -31 -80 -39 -57 -32 -135 -62 -225 -88
-33 -10 -66 -22 -73 -28 -7 -5 -31 -11 -55 -13 -23 -2 -61 -9 -85 -15 -29 -8
-84 -10 -170 -5 -204 10 -214 17 -134 84 34 30 44 44 36 52 -8 8 -18 8 -37 -1
-17 -8 -34 -8 -54 -1 l-28 9 30 13 c17 7 45 18 63 26 18 8 41 14 50 14 10 0
27 7 38 15 10 8 25 15 32 15 7 0 50 18 95 39 46 22 96 43 112 46 42 10 114 34
134 45 10 5 40 11 67 14 124 13 153 25 273 108 63 44 85 47 104 16z m258 -8
c30 -5 68 -11 84 -13 28 -4 57 -14 114 -41 32 -14 75 -72 68 -90 -3 -8 -25
-20 -49 -26 -24 -6 -56 -16 -73 -23 -41 -15 -174 -18 -198 -4 -23 14 -87 149
-87 183 0 22 4 24 43 24 24 0 68 -4 98 -10z m-1296 -359 c-3 -6 -11 -11 -17
-11 -6 0 -6 6 2 15 14 17 26 13 15 -4z m-466 -72 c20 -7 45 -15 56 -20 42 -16
212 -67 245 -74 19 -3 44 -10 55 -15 19 -9 71 -20 180 -40 28 -5 68 -14 90
-19 22 -6 55 -11 73 -11 17 0 32 -5 32 -10 0 -13 -56 -75 -190 -215 -54 -55
-107 -117 -119 -139 -26 -45 -38 -143 -22 -173 6 -12 14 -59 17 -106 6 -75 4
-88 -13 -113 -52 -74 -64 -119 -64 -228 0 -42 -45 -182 -78 -242 -13 -23 -67
-97 -97 -132 -17 -21 -42 -55 -56 -77 -14 -23 -48 -65 -75 -95 -27 -30 -54
-62 -59 -71 -5 -9 -60 -69 -121 -134 l-112 -118 -93 2 c-51 1 -111 4 -133 6
-22 3 -101 10 -175 16 -501 40 -540 45 -568 71 -15 14 -56 39 -92 56 -36 17
-88 49 -117 71 -29 21 -74 49 -100 62 -26 12 -61 33 -76 46 -16 13 -33 23 -39
23 -6 0 -26 11 -44 25 -18 14 -36 25 -41 25 -4 0 -30 16 -57 35 -27 19 -54 35
-60 35 -6 0 -29 14 -50 30 -22 17 -44 30 -49 30 -5 0 -27 16 -50 35 -22 19
-45 35 -51 35 -17 0 -86 49 -86 61 0 6 13 23 28 39 34 33 133 65 237 75 39 4
81 13 95 20 14 7 47 16 75 20 27 4 61 13 75 20 14 7 45 16 70 19 43 7 89 22
155 51 82 37 129 55 141 55 19 0 172 81 223 118 24 18 50 32 56 32 43 0 425
335 425 372 0 7 42 56 94 108 126 127 354 369 389 414 33 41 29 40 76 25z
m3309 -431 c11 -15 27 -94 23 -120 -1 -9 3 -19 9 -23 14 -9 13 -40 -4 -54 -22
-18 -57 18 -67 69 -10 55 -11 124 -2 133 10 11 30 8 41 -5z m303 -72 c16 -57
18 -81 19 -156 0 -90 -6 -122 -26 -137 -26 -19 -33 -17 -68 20 -34 36 -41 75
-38 207 1 61 4 67 37 98 43 40 59 33 76 -32z m-3026 4 c-10 -11 -20 -18 -23
-15 -3 3 3 14 13 25 10 11 20 18 23 15 3 -3 -3 -14 -13 -25z m2925 -370 c26
-26 25 -38 -2 -44 -61 -14 -98 -5 -98 21 0 41 67 56 100 23z m-6542 -89 c28
-1 222 -195 212 -211 -4 -7 -54 -24 -111 -39 -57 -15 -113 -32 -124 -38 -11
-6 -45 -14 -75 -18 -30 -4 -66 -13 -80 -20 -24 -12 -48 -20 -140 -44 -25 -7
-58 -19 -75 -28 -16 -8 -48 -24 -70 -35 -22 -11 -52 -26 -67 -34 -14 -8 -32
-14 -40 -14 -7 0 -39 -18 -72 -40 -32 -22 -70 -40 -83 -40 -39 0 -154 71 -215
133 -67 67 -74 97 -30 123 15 9 46 30 69 45 23 16 47 29 53 29 7 0 38 16 70
35 32 19 64 35 71 35 8 0 29 9 47 20 18 11 40 20 48 20 9 0 28 9 43 19 15 11
63 29 105 40 43 11 84 25 90 30 6 5 47 12 91 16 44 4 85 10 92 13 10 6 112 8
191 3z m322 -341 c0 -18 -49 -42 -97 -47 -26 -3 -59 -11 -73 -18 -14 -7 -45
-16 -70 -20 -25 -4 -70 -14 -100 -22 -30 -8 -75 -19 -100 -24 -74 -14 -133
-30 -167 -45 -36 -16 -83 -18 -83 -4 0 14 86 74 118 82 54 14 98 27 141 43 97
35 431 78 431 55z m55 0 c-3 -5 -11 -10 -16 -10 -6 0 -7 5 -4 10 3 6 11 10 16
10 6 0 7 -4 4 -10z m3208 -122 c35 -48 63 -117 65 -162 1 -21 4 -41 7 -44 3
-3 39 2 80 13 l74 18 116 -38 c64 -21 118 -42 121 -46 3 -5 14 -9 25 -9 10 0
27 -4 37 -9 9 -4 43 -20 75 -35 37 -16 57 -32 57 -43 0 -23 -39 -102 -67 -136
-13 -16 -23 -33 -23 -38 0 -6 -18 -32 -40 -58 -22 -26 -40 -55 -40 -64 0 -8
-4 -18 -9 -22 -5 -3 -12 -18 -16 -34 -3 -16 -13 -35 -21 -42 -25 -20 -43 -63
-52 -123 -8 -48 -7 -56 7 -56 28 1 60 36 102 112 23 40 58 93 79 118 20 25 42
55 49 68 7 12 60 71 117 130 102 102 107 106 147 106 69 -1 251 -41 344 -75
32 -11 67 -23 78 -26 38 -10 122 -52 135 -68 7 -8 20 -15 29 -15 32 0 131 -76
200 -155 72 -82 106 -139 116 -196 3 -17 11 -41 17 -53 6 -11 13 -64 16 -117
l5 -96 -41 -56 c-56 -75 -94 -97 -168 -97 -89 0 -153 23 -389 136 -130 62
-134 63 -268 70 -67 3 -142 11 -167 19 -52 15 -157 41 -250 61 -36 8 -74 18
-85 23 -50 23 -110 21 -200 -5 -103 -31 -131 -31 -183 -4 -20 11 -43 20 -50
20 -11 0 -93 35 -164 71 -10 5 -23 9 -28 9 -6 0 -44 16 -83 34 -40 19 -91 40
-113 46 -23 5 -47 17 -54 25 -7 8 -20 15 -29 15 -10 0 -26 7 -37 15 -10 8 -24
15 -31 15 -7 0 -47 16 -89 36 l-76 36 7 35 c9 50 82 142 222 278 68 66 123
124 123 128 0 5 18 29 40 54 22 25 40 51 40 58 0 7 24 39 53 72 28 33 65 77
80 97 37 48 76 49 110 4z m-2858 -38 c15 -12 12 -15 -27 -27 -24 -7 -63 -12
-88 -12 -25 0 -65 -2 -90 -6 -25 -3 -70 -8 -100 -10 -49 -3 -52 -2 -35 11 10
8 24 14 29 15 6 0 34 5 61 10 201 39 224 41 250 19z m-399 -66 c-11 -8 -35
-14 -54 -14 -29 0 -33 2 -22 14 10 13 77 26 90 18 3 -2 -4 -10 -14 -18z m-131
-17 c-20 -14 -81 -31 -145 -42 l-35 -6 27 23 c21 18 42 24 85 26 31 1 59 5 62
7 2 3 9 5 15 5 6 0 2 -6 -9 -13z m-185 -32 c0 -3 -15 -14 -32 -25 -34 -21 -88
-27 -88 -11 0 15 21 25 65 32 22 4 43 7 48 8 4 0 7 -1 7 -4z m4215 -1074 c-6
-4 -23 -12 -39 -15 -26 -6 -28 -5 -17 8 8 9 25 16 39 16 15 0 22 -4 17 -9z
m-93 -13 c-9 -9 -15 -9 -24 0 -9 9 -7 12 12 12 19 0 21 -3 12 -12z m-357 -58
c16 -10 46 -21 65 -25 55 -11 104 -28 123 -44 16 -13 13 -17 -37 -47 -30 -18
-97 -53 -149 -78 -52 -25 -132 -71 -177 -101 -45 -31 -148 -91 -228 -133 -131
-68 -155 -85 -224 -155 -43 -44 -78 -84 -78 -90 0 -6 -15 -25 -32 -42 -54 -52
-119 -127 -143 -166 -13 -20 -34 -45 -47 -55 -20 -17 -72 -86 -117 -158 -8
-13 -27 -32 -43 -42 -15 -10 -42 -41 -59 -68 -18 -27 -61 -77 -96 -113 -34
-35 -63 -70 -63 -76 -1 -13 -98 -113 -104 -106 -15 17 -23 49 -19 71 4 21 -4
35 -45 75 -61 62 -69 95 -39 153 41 80 47 88 72 104 14 9 25 21 25 26 0 30 67
102 140 150 91 60 105 78 95 126 -7 40 11 69 72 113 21 16 58 53 83 84 25 30
68 69 96 86 29 17 83 64 121 105 50 54 88 83 139 109 39 20 99 55 135 79 35
25 109 69 164 100 55 30 132 77 170 103 67 45 72 46 120 40 27 -3 63 -15 80
-25z m905 -55 c69 -16 212 -60 245 -75 11 -5 38 -14 60 -22 22 -7 56 -23 75
-35 19 -13 39 -23 44 -23 10 0 163 -72 216 -102 19 -10 62 -33 95 -49 33 -17
89 -46 125 -64 36 -19 70 -34 76 -35 6 0 18 -7 25 -16 7 -9 40 -29 74 -45 33
-15 76 -37 95 -48 74 -41 471 -231 483 -231 4 0 40 -16 81 -35 41 -19 82 -35
91 -35 9 0 38 -11 65 -25 27 -14 59 -25 71 -25 21 0 96 -36 114 -56 6 -5 26
-22 47 -37 51 -37 108 -92 108 -105 0 -12 -49 -22 -56 -11 -3 5 -16 9 -29 9
-13 0 -27 4 -30 10 -3 5 -28 12 -56 16 -28 4 -65 17 -83 29 -17 12 -47 25 -66
28 -18 4 -56 18 -84 31 -121 58 -263 128 -291 145 -16 9 -55 28 -85 40 -30 13
-57 27 -60 31 -7 11 -67 40 -81 40 -7 0 -21 7 -31 17 -20 18 -38 29 -118 71
-30 16 -95 51 -145 77 -49 26 -97 54 -105 61 -8 7 -28 16 -45 20 -16 3 -39 15
-50 25 -11 9 -40 25 -65 35 -25 9 -52 23 -61 31 -8 7 -22 13 -31 13 -8 0 -22
8 -32 18 -29 33 -89 47 -148 34 -64 -14 -140 -25 -188 -28 -53 -3 -176 -21
-260 -38 -41 -9 -124 -20 -185 -26 -60 -6 -139 -19 -175 -30 -41 -12 -91 -18
-135 -17 -62 1 -79 -3 -150 -36 -44 -21 -114 -60 -155 -86 -105 -67 -182 -112
-275 -161 -44 -23 -93 -54 -109 -67 -16 -14 -113 -67 -215 -118 -102 -51 -195
-102 -205 -114 -27 -30 -38 -167 -19 -236 8 -27 18 -75 23 -105 10 -67 27
-114 74 -207 36 -72 36 -72 18 -105 -9 -18 -22 -36 -27 -40 -6 -3 -28 -33 -49
-65 -21 -33 -54 -69 -72 -81 -19 -12 -34 -28 -34 -35 0 -26 -106 -116 -180
-152 -65 -33 -84 -38 -145 -38 -186 0 -303 34 -324 94 -6 18 -11 36 -11 40 0
4 45 31 100 60 88 45 104 57 127 98 14 25 33 53 40 62 14 17 26 122 23 206 -1
51 39 157 86 229 19 28 34 55 34 60 0 5 24 36 53 69 29 33 61 78 72 100 11 22
28 46 37 55 17 15 30 32 103 138 49 70 75 82 196 87 160 7 184 30 129 118 -38
61 -35 70 36 107 27 14 106 56 175 92 118 62 258 149 304 189 11 9 65 41 120
69 55 29 131 73 170 100 50 35 87 51 130 60 102 20 186 39 240 55 28 9 127 3
185 -10z m-194 -1333 c10 -5 46 -16 79 -23 33 -7 79 -21 103 -32 36 -15 42
-22 37 -40 -7 -21 -63 -78 -132 -133 -21 -17 -45 -26 -68 -26 -46 0 -160 55
-181 88 -10 14 -29 31 -43 39 -14 7 -41 28 -59 45 -38 38 -32 52 33 81 31 14
59 17 126 15 47 -2 94 -8 105 -14z m-2261 -144 c17 -33 18 -41 7 -80 -7 -24
-16 -54 -19 -68 -3 -14 -15 -35 -25 -47 -11 -12 -30 -41 -42 -65 -25 -51 -106
-100 -135 -81 -27 18 -18 112 17 181 55 105 61 117 79 140 58 75 86 80 118 20z
m2677 5 c8 -10 28 -40 44 -68 42 -73 111 -162 138 -177 107 -59 229 -159 345
-282 37 -39 119 -122 184 -185 64 -64 117 -119 117 -123 0 -17 -45 -7 -76 17
-62 47 -67 34 -24 -61 34 -75 27 -86 -44 -65 -23 6 -59 16 -81 22 -22 5 -58
18 -80 29 -22 10 -62 28 -90 40 -27 11 -60 30 -72 42 -22 21 -45 36 -93 60
-14 7 -32 22 -39 32 -25 34 -115 116 -128 116 -6 0 -21 16 -33 34 -11 19 -30
38 -40 41 -11 3 -30 24 -43 45 -13 21 -62 82 -110 135 -48 52 -89 106 -93 119
-4 19 4 33 39 70 42 43 87 117 87 144 0 31 68 42 92 15z m-2372 -97 c-1 -11
-10 -37 -20 -56 -11 -19 -26 -50 -35 -68 -10 -21 -29 -39 -50 -48 -47 -19 -62
-18 -69 8 -4 17 2 30 24 50 17 15 30 31 30 37 0 18 51 86 73 97 28 15 47 7 47
-20z m-397 -361 c28 -27 31 -34 21 -59 -7 -18 -54 -22 -71 -5 -6 6 -22 17 -35
23 -33 17 -28 39 12 53 46 16 41 16 73 -12z m3664 -431 c-9 -9 -28 6 -21 18 4
6 10 6 17 -1 6 -6 8 -13 4 -17z m-312 -169 c44 -9 97 -23 118 -31 20 -8 52
-14 70 -14 17 0 53 -7 79 -14 25 -8 49 -12 52 -9 3 3 27 0 53 -7 26 -7 64 -15
83 -16 19 -2 62 -6 95 -9 33 -3 105 -11 160 -18 114 -14 118 -18 135 -121 5
-30 32 -113 61 -183 51 -126 80 -211 93 -267 4 -16 29 -82 57 -146 27 -65 49
-133 49 -151 0 -35 45 -163 99 -284 42 -92 162 -305 173 -305 4 0 29 -33 55
-72 57 -91 93 -134 213 -257 176 -181 185 -191 196 -191 5 0 36 -25 69 -55 33
-31 81 -69 106 -86 25 -16 55 -39 65 -50 21 -24 110 -84 154 -105 31 -15 142
-119 156 -145 8 -16 14 -39 14 -53 0 -28 -16 -33 -116 -41 -34 -2 -74 -9 -90
-15 -15 -6 -46 -13 -68 -15 -23 -2 -77 -9 -121 -14 -191 -25 -337 -42 -429
-51 -54 -6 -124 -17 -155 -25 -31 -8 -99 -16 -151 -18 -52 -3 -108 -10 -125
-16 -25 -10 -42 -8 -115 14 -47 15 -104 35 -128 46 -23 10 -52 19 -63 19 -11
0 -30 5 -41 11 -20 11 -268 100 -403 145 -38 12 -108 37 -155 55 -47 17 -94
33 -106 36 -51 12 -74 45 -118 178 -24 72 -53 152 -65 178 -12 27 -21 57 -21
68 0 11 -13 66 -29 122 -38 131 -61 229 -71 292 -5 28 -13 62 -18 76 -19 47 3
308 27 332 6 6 11 25 11 43 0 17 10 44 21 59 21 26 21 30 10 126 -10 84 -10
103 3 126 8 16 22 43 31 60 9 18 34 52 55 75 20 24 47 70 58 103 28 79 19 152
-38 300 -64 168 -110 306 -110 332 0 19 3 22 18 15 9 -5 53 -17 97 -27z m-90
-377 c4 -17 3 -28 -3 -28 -10 0 -22 32 -22 60 0 22 18 -1 25 -32z m-1990 -922
c33 -4 80 -9 105 -11 53 -5 138 -21 200 -40 25 -7 62 -16 82 -18 64 -9 96 -42
119 -122 11 -38 36 -108 56 -154 19 -47 37 -102 39 -123 2 -22 10 -65 18 -96
15 -59 24 -124 30 -204 4 -52 35 -122 58 -126 11 -2 19 17 33 73 14 62 15 83
6 121 -7 25 -11 78 -10 118 2 43 -4 93 -14 128 -10 31 -15 63 -12 70 3 8 1 28
-6 44 -17 45 -22 179 -6 192 24 20 270 16 432 -7 38 -6 72 -8 76 -5 14 8 64
-20 120 -68 31 -26 61 -48 67 -48 5 0 18 20 29 45 21 49 109 133 163 155 44
18 80 -3 97 -57 51 -169 63 -213 63 -241 0 -18 9 -59 19 -90 11 -32 19 -71 19
-87 0 -17 20 -75 44 -130 123 -273 169 -481 110 -499 -31 -10 -477 -6 -957 8
-38 1 -85 -1 -103 -5 -17 -4 -35 -3 -38 3 -3 5 -91 7 -220 5 -195 -5 -217 -3
-251 14 -20 10 -45 19 -54 19 -16 0 -70 22 -99 40 -8 5 -44 23 -80 39 -36 16
-92 41 -125 56 -96 43 -118 54 -150 75 -16 11 -41 25 -55 32 -14 6 -32 18 -41
25 -19 16 -182 43 -284 48 -161 8 -304 44 -352 88 -30 27 -63 100 -76 169 -10
53 -8 63 18 130 33 84 60 127 104 164 17 14 31 31 31 38 0 19 70 80 130 114
78 43 218 99 266 106 23 4 72 8 108 10 37 2 70 6 73 10 6 6 125 2 218 -8z
m4771 -1547 c11 -10 24 -19 28 -19 5 0 23 -12 41 -27 18 -16 52 -39 75 -53 23
-14 46 -32 50 -41 8 -13 5 -15 -18 -11 -15 2 -35 11 -45 20 -18 16 -42 30 -92
56 -16 9 -37 20 -45 25 -8 6 -33 18 -55 28 -21 9 -47 25 -56 34 -9 9 -25 22
-35 28 -18 11 -18 12 -1 25 16 12 25 10 75 -16 31 -17 66 -39 78 -49z m324 60
c0 -6 -4 -7 -10 -4 -5 3 -10 11 -10 16 0 6 5 7 10 4 6 -3 10 -11 10 -16z m-50
-244 c7 -8 18 -15 26 -15 15 0 39 -38 30 -48 -4 -3 -12 0 -18 6 -7 7 -18 12
-26 12 -8 0 -21 8 -28 18 -26 33 -11 59 16 27z m152 -105 c8 0 23 -9 33 -20
10 -11 24 -20 31 -20 16 0 54 -48 54 -68 0 -13 -4 -12 -22 5 -13 11 -39 29
-59 41 -42 25 -89 70 -89 85 0 6 8 3 18 -6 10 -10 25 -17 34 -17z"/>
<path d="M5024 8750 c-42 -18 -77 -52 -38 -35 10 4 33 8 50 9 32 2 64 21 64
37 0 14 -31 9 -76 -11z"/>
<path d="M4210 7962 c6 -13 14 -21 18 -18 3 4 -2 14 -12 24 -18 16 -18 16 -6
-6z"/>
<path d="M6750 3706 c0 -22 40 -66 60 -66 10 0 28 -12 39 -27 13 -18 20 -23
21 -13 0 20 -25 56 -64 91 -34 31 -56 37 -56 15z"/>
<path d="M7304 2435 c-10 -8 -14 -15 -8 -15 5 0 19 7 30 15 10 8 14 15 8 15
-5 0 -19 -7 -30 -15z"/>
</g>
</svg>
